<?xml version="1.0" standalone="no"?>
<svg xmlns="http://www.w3.org/2000/svg" class="icon" viewBox="0 0 1024 1024">
  <g fill="none" fill-rule="evenodd" stroke="none" stroke-width="1" transform="translate(111.998 458.997)">
    <path fill="#181818" d="m449.888 15.892 14.686 74.234h-19.922l-2.09-12.903h-26.696l-6.487 12.903h-19.93l40.036-74.234h20.403Zm-13.952 21.95-12.605 24.713h16.775l-4.17-24.713ZM236.472 13.823c5.787 0 10.954 1.005 15.508 2.998 4.554 2.011 8.287 4.782 11.207 8.322 2.928 3.55 4.965 7.702 6.127 12.457 1.154 4.756 1.26 9.896.324 15.403-.944 5.516-2.806 10.647-5.595 15.411-2.78 4.756-6.232 8.908-10.367 12.457-4.135 3.54-8.82 6.312-14.057 8.313-5.227 2.002-10.743 2.999-16.521 2.999-5.848 0-11.032-.997-15.552-2.999-4.519-2.001-8.225-4.773-11.119-8.313-2.885-3.549-4.913-7.701-6.067-12.457-1.162-4.764-1.267-9.895-.323-15.411.935-5.507 2.797-10.647 5.577-15.403 2.789-4.755 6.233-8.907 10.324-12.457 4.1-3.54 8.759-6.311 13.96-8.322 5.202-1.993 10.726-2.998 16.574-2.998Zm-3.19 18.707c-2.736 0-5.411.507-8.034 1.521a24.976 24.976 0 0 0-7.16 4.284 26.34 26.34 0 0 0-5.498 6.503c-1.503 2.492-2.509 5.219-3.016 8.165-.507 2.955-.428 5.682.228 8.173.655 2.5 1.748 4.66 3.278 6.495 1.53 1.836 3.427 3.27 5.7 4.284 2.272 1.022 4.781 1.53 7.508 1.53 2.728 0 5.411-.508 8.034-1.53a25.52 25.52 0 0 0 7.212-4.284 25.759 25.759 0 0 0 5.542-6.495c1.503-2.491 2.509-5.218 3.016-8.173.498-2.946.428-5.673-.228-8.165-.655-2.5-1.757-4.659-3.321-6.503-1.565-1.836-3.48-3.261-5.752-4.284-2.273-1.014-4.782-1.52-7.51-1.52Z" />
    <path fill="#181818" d="M389.218556 73.7781711 351.393683 73.7781711 353.579081 60.9804789 390.162648 60.9804789 392.959958 44.6424415 356.36765 44.6424415 358.491857 32.238121 396.31673 32.238121 399.105298 15.891342 342.590899 15.891342 329.915589 90.1249501 386.456213 90.1162086z" />
    <path fill="#181818" d="M519.386122 60.4262619 497.558364 15.8878454 478.868838 15.8878454 466.193528 90.1214535 484.883054 90.1214535 492.628105 45.5830369 514.455863 90.1214535 533.049232 90.1214535 545.724541 15.8878454 527.139915 15.8878454z" />
    <path fill="#181818" d="M584.832 15.889c6.608 0 11.355 1.643 14.222 4.921 2.868 3.287 3.777 8.016 2.728 14.18-.638 3.74-1.818 6.844-3.54 9.3-1.723 2.465-4.074 4.546-7.029 6.26 2.579.524 4.712 1.328 6.408 2.403 1.687 1.084 2.99 2.413 3.89 3.995.909 1.573 1.442 3.348 1.617 5.315.175 1.967.07 4.065-.315 6.303-.585 3.479-1.704 6.556-3.339 9.248-1.635 2.693-3.671 4.957-6.12 6.792-2.438 1.836-5.262 3.217-8.47 4.135-3.208.918-6.722 1.381-10.533 1.381h-32.493l12.667-74.233Zm-12.483 43.515h-6.565l-2.693 15.753h6.565c4.712 0 8.183-.62 10.43-1.871 2.246-1.241 3.6-3.252 4.073-6.005.472-2.754-.201-4.756-2.028-6.006-1.819-1.241-5.08-1.87-9.782-1.87Zm4.24-28.75h-5.892l-2.457 14.38h5.892c5.848 0 9.179-2.396 10-7.186.822-4.79-1.695-7.195-7.544-7.195ZM714.186 44.835a98.609 98.609 0 0 0-4.37-1.478c-1.478-.454-2.789-.996-3.917-1.626-1.136-.62-2.01-1.354-2.63-2.211-.613-.857-.805-1.932-.587-3.252.324-1.897 1.355-3.444 3.078-4.624 1.73-1.18 3.793-1.775 6.215-1.775 1.905 0 3.802.411 5.7 1.233 1.896.821 3.714 2.08 5.454 3.785l10.01-15.053a40.066 40.066 0 0 0-10.386-4.485c-3.706-1.014-7.343-1.52-10.9-1.52-3.812 0-7.361.585-10.64 1.765-3.286 1.18-6.18 2.841-8.67 4.974-2.492 2.133-4.581 4.694-6.269 7.675-1.687 2.99-2.84 6.32-3.47 10-.63 3.672-.586 6.705.114 9.1.7 2.396 1.827 4.38 3.365 5.954 1.548 1.582 3.392 2.84 5.551 3.793 2.16.953 4.38 1.827 6.661 2.605a98.55 98.55 0 0 1 4.86 1.976c1.33.586 2.378 1.233 3.148 1.914.778.691 1.276 1.452 1.52 2.265.245.821.272 1.792.08 2.91-.315 1.836-1.347 3.47-3.087 4.922-1.74 1.442-4.134 2.16-7.185 2.16-2.666 0-5.263-.621-7.78-1.872-2.518-1.24-4.965-3.146-7.326-5.708l-10.656 15.56c6.801 5.577 14.747 8.366 23.83 8.366 4.388 0 8.41-.603 12.08-1.818 3.672-1.215 6.89-2.92 9.652-5.123 2.762-2.194 5.017-4.843 6.783-7.92 1.766-3.094 2.981-6.53 3.628-10.341.961-5.647.332-10.219-1.897-13.733-2.23-3.514-6.215-6.312-11.959-8.418M317.243 13.824c-5.027 0-9.983.97-14.896 2.902a47.8 47.8 0 0 0-13.436 8.077c-4.056 3.445-7.517 7.544-10.393 12.3-2.876 4.764-4.808 9.991-5.779 15.708-.97 5.709-.821 10.971.446 15.797 1.277 4.825 3.34 8.995 6.207 12.509 2.867 3.505 6.407 6.232 10.62 8.164 4.214 1.941 8.795 2.903 13.76 2.903 2.413 0 4.895-.245 7.465-.735 2.562-.49 5.359-1.267 8.401-2.307l2.028-.7 3.899-22.833c-5.665 5.254-11.487 7.876-17.457 7.876-2.736 0-5.193-.524-7.36-1.582-2.177-1.04-3.978-2.491-5.412-4.327-1.433-1.836-2.43-4.004-2.99-6.495-.559-2.491-.585-5.219-.078-8.173a24.613 24.613 0 0 1 2.859-8.078c1.407-2.491 3.12-4.641 5.148-6.442a23.778 23.778 0 0 1 6.88-4.284 20.996 20.996 0 0 1 8.042-1.573c6.356 0 11.225 2.727 14.616 8.165l3.934-23.034c-2.824-1.312-5.568-2.282-8.226-2.903a36.303 36.303 0 0 0-8.278-.935M668.224 74.544c-3.033-.603-8.951-.935-19.048 1.469l2.3 14.388h19.921l-3.173-15.857Z" />
    <path fill="#181818" d="m667.402 70.196-3.234-16.347c-4.817.079-10.848.813-18.331 2.701-.822.21-1.661.429-2.518.665a95.784 95.784 0 0 1-11.486 2.421l10.935-21.513 2.343 14.397c7.483-1.888 13.515-2.622 18.34-2.71l-6.74-33.637h-20.394l-40.036 74.233h19.922l7.185-14.135c5.988-.42 13.261-1.468 21.522-3.732a95.335 95.335 0 0 1 3.444-.875c10.097-2.403 16.015-2.071 19.048-1.468M767.415 45.25c-14.826 3.88-26.111 3.513-31.033 3.05l-2.64 15.953c1.408.114 3.042.201 4.913.236 7.308.14 18.034-.524 30.963-3.916 12.264-3.208 19.493-3.007 23.2-2.395l2.649-16.023c-6.224-.656-15.29-.245-28.052 3.094M771.25 16.525c-14.17 3.707-25.096 3.54-30.333 3.112l-3.96 24.494c3.47.323 10.053.594 18.786-.612l1.39-8.54a123.03 123.03 0 0 0 16.32-3.13c13.078-3.418 20.42-2.963 23.891-2.264l2.658-16.067c-6.242-.77-15.5-.463-28.751 3.007M763.84 72.939a104.606 104.606 0 0 1-12.902 2.535l1.276-7.832c-5.446.62-10.149.769-13.934.699a85.655 85.655 0 0 1-4.825-.227l-3.978 23.777c1.547.13 3.418.245 5.604.288 7.308.14 18.033-.524 30.962-3.916 11.565-3.025 18.646-3.016 22.527-2.491l2.64-15.989c-6.197-.56-15.061-.07-27.37 3.156" />
    <path fill="#07C846" d="M87.72 105.365a144.42 144.42 0 0 1 9.58-3.654 125.484 125.484 0 0 1 4.554-1.477 126.82 126.82 0 0 1 3.672-1.075c18.532-5.176 37.326-6.54 55.5-4.52V75.687c-20.114-1.975-40.867-.28-61.33 5.543-1.225.34-2.448.699-3.663 1.083-1.618.49-3.226 1.014-4.835 1.574a162.21 162.21 0 0 0-9.318 3.497l5.84 17.981Z" />
    <path fill="#0181FD" d="M161.025 14.208v56.75c-20.848-1.993-42.37-.148-63.577 6.006a163.305 163.305 0 0 0-7.78 2.465 233.545 233.545 0 0 1-9.389 2.99C53.548 90.32 26.414 93.048.005 91.16V34.4c20.595 1.976 41.846.202 62.8-5.777a172.297 172.297 0 0 0 8.55-2.684c2.866-.98 5.734-1.906 8.61-2.762 26.994-8.078 54.39-10.875 81.06-8.97" />
    <path fill="#FFA005" d="M73.307 0a144.42 144.42 0 0 1-9.58 3.654 125.483 125.483 0 0 1-4.555 1.477A126.82 126.82 0 0 1 55.5 6.207C36.968 11.382 18.174 12.745 0 10.726v18.952c20.114 1.975 40.867.28 61.331-5.542 1.224-.341 2.448-.7 3.663-1.084 1.617-.49 3.225-1.014 4.834-1.574a162.21 162.21 0 0 0 9.318-3.497L73.307 0Z" />
  </g>
</svg>
